<svg width="24" height="24" viewBox="0 0 24 24" fill="none" xmlns="http://www.w3.org/2000/svg">
<path d="M3.16155 19.6139C2.65061 19.6139 2.21358 19.432 1.85049 19.0682C1.48662 18.7043 1.30469 18.2673 1.30469 17.7571V7.63628H2.45373V17.7571C2.45373 17.9333 2.52727 18.0953 2.67435 18.2431C2.8222 18.391 2.9846 18.4649 3.16155 18.4649H19.2919V19.6139H3.16155ZM6.60869 16.1668C6.09775 16.1668 5.66073 15.9849 5.29763 15.621C4.93376 15.2571 4.75183 14.8201 4.75183 14.3099V6.08966C4.75183 5.57948 4.93376 5.14284 5.29763 4.77975C5.66149 4.41665 6.09813 4.23471 6.60754 4.23395H20.8385C21.3494 4.23395 21.7865 4.4155 22.1496 4.7786C22.5127 5.1417 22.6946 5.57872 22.6954 6.08966V14.3099C22.6954 14.8201 22.5134 15.2568 22.1496 15.6199C21.7865 15.9845 21.3498 16.1668 20.8396 16.1668H6.60869ZM7.75774 15.0178C7.75774 14.503 7.57581 14.0648 7.21194 13.7032C6.84961 13.3417 6.41297 13.1609 5.90203 13.1609V14.3099C5.90203 14.5015 5.97174 14.6673 6.11115 14.8075C6.25057 14.9477 6.41642 15.0178 6.60869 15.0178H7.75774ZM19.6894 15.0178H20.8385C21.03 15.0178 21.1958 14.9477 21.336 14.8075C21.4762 14.6673 21.5463 14.5015 21.5463 14.3099V13.1609C21.0315 13.1609 20.5934 13.3428 20.2318 13.7067C19.8702 14.0698 19.6894 14.5064 19.6894 15.0166M13.7236 12.499C14.3717 12.499 14.9167 12.278 15.3587 11.836C15.8007 11.394 16.0217 10.849 16.0217 10.201C16.0217 9.55289 15.8007 9.00747 15.3587 8.56471C14.9167 8.12194 14.3717 7.90094 13.7236 7.90171C13.0755 7.90247 12.5305 8.12347 12.0885 8.56471C11.6465 9.00594 11.4255 9.55097 11.4255 10.1998C11.4255 10.8486 11.6465 11.3937 12.0885 11.8349C12.5305 12.2761 13.0755 12.4983 13.7236 12.499ZM5.90088 7.23871C6.41565 7.23871 6.85382 7.05716 7.21539 6.69406C7.57695 6.33019 7.75774 5.89317 7.75774 5.383H6.60869C6.41718 5.383 6.25134 5.45309 6.11115 5.59327C5.97097 5.73345 5.90088 5.89892 5.90088 6.08966V7.23871ZM21.5463 7.23871V6.08966C21.5463 5.89815 21.4762 5.73269 21.336 5.59327C21.1958 5.45385 21.03 5.38376 20.8385 5.383H19.6894C19.6894 5.897 19.8714 6.33479 20.2352 6.69636C20.5983 7.05792 21.035 7.23871 21.5452 7.23871" fill="#00327D"/>
</svg>
