<svg width="24" height="24" viewBox="0 0 24 24" fill="none" xmlns="http://www.w3.org/2000/svg">
<path fill-rule="evenodd" clip-rule="evenodd" d="M10.446 2.685C10.5295 2.97144 10.4958 3.27933 10.3524 3.54094C10.2089 3.80255 9.9674 3.99646 9.68097 4.08C8.35291 4.47014 7.14411 5.18757 6.16548 6.16646C5.18686 7.14535 4.46975 8.35434 4.07997 9.6825C3.99623 9.96894 3.80213 10.2104 3.54037 10.3537C3.27862 10.497 2.97065 10.5305 2.68422 10.4468C2.39778 10.363 2.15635 10.1689 2.01302 9.90716C1.8697 9.6454 1.83623 9.33744 1.91997 9.051C2.41586 7.36006 3.32876 5.82086 4.5748 4.57483C5.82083 3.3288 7.36003 2.4159 9.05097 1.92C9.1928 1.87864 9.34138 1.86561 9.48824 1.88167C9.63511 1.89772 9.77737 1.94255 9.90691 2.01359C10.0364 2.08462 10.1507 2.18048 10.2432 2.29568C10.3357 2.41088 10.4046 2.54317 10.446 2.685ZM13.554 2.685C13.6375 2.39857 13.8314 2.15705 14.093 2.01359C14.3546 1.87012 14.6625 1.83646 14.949 1.92C16.4557 2.36137 17.8444 3.1349 19.0128 4.1837C20.1813 5.23249 21.0997 6.52987 21.7007 7.98041C22.3016 9.43095 22.5697 10.9978 22.4853 12.5656C22.4009 14.1334 21.9662 15.6624 21.213 17.04C21.1449 17.1746 21.0504 17.2941 20.9352 17.3914C20.82 17.4887 20.6864 17.5619 20.5424 17.6066C20.3983 17.6513 20.2468 17.6665 20.0967 17.6514C19.9467 17.6364 19.8012 17.5913 19.6689 17.5188C19.5366 17.4464 19.4202 17.3481 19.3267 17.2298C19.2332 17.1115 19.1644 16.9756 19.1244 16.8302C19.0844 16.6848 19.0741 16.5328 19.094 16.3833C19.114 16.2338 19.1638 16.0899 19.2405 15.96C19.8321 14.8775 20.1736 13.6763 20.2398 12.4445C20.306 11.2127 20.0953 9.98169 19.6232 8.84204C19.1511 7.70238 18.4295 6.68304 17.5116 5.85894C16.5937 5.03485 15.5027 4.42697 14.319 4.08C14.0325 3.99646 13.791 3.80255 13.6476 3.54094C13.5041 3.27933 13.4704 2.97144 13.554 2.685ZM2.68497 13.554C2.9714 13.4705 3.27929 13.5041 3.54091 13.6476C3.80252 13.7911 3.99643 14.0326 4.07997 14.319C4.42711 15.5026 5.03512 16.5934 5.85928 17.5112C6.68344 18.4289 7.70281 19.1503 8.84244 19.6223C9.98208 20.0943 11.213 20.3048 12.4447 20.2385C13.6764 20.1722 14.8776 19.8306 15.96 19.239C16.2217 19.0958 16.5297 19.0624 16.816 19.1462C17.1024 19.2301 17.3438 19.4242 17.487 19.686C17.6302 19.9478 17.6635 20.2557 17.5797 20.5421C17.4959 20.8284 17.3017 21.0698 17.04 21.213C15.6623 21.9662 14.1334 22.401 12.5655 22.4854C10.9977 22.5698 9.43092 22.3016 7.98038 21.7007C6.52984 21.0998 5.23246 20.1813 4.18367 19.0129C3.13487 17.8445 2.36134 16.4558 1.91997 14.949C1.83643 14.6626 1.87009 14.3547 2.01355 14.0931C2.15702 13.8315 2.39853 13.6375 2.68497 13.554ZM12 8.25C11.1599 8.24951 10.3439 8.53114 9.68295 9.04973C9.022 9.56832 8.55433 10.2938 8.35493 11.1099C8.15553 11.926 8.23595 12.7855 8.58329 13.5504C8.93064 14.3154 9.52478 14.9415 10.2705 15.3285C10.4015 15.3969 10.5177 15.4903 10.6126 15.6036C10.7074 15.7169 10.7791 15.8478 10.8234 15.9887C10.8677 16.1297 10.8837 16.278 10.8707 16.4252C10.8577 16.5723 10.8158 16.7155 10.7475 16.8465C10.6791 16.9775 10.5856 17.0937 10.4724 17.1886C10.3591 17.2835 10.2282 17.3551 10.0873 17.3994C9.9463 17.4437 9.798 17.4598 9.65082 17.4468C9.50364 17.4337 9.36046 17.3919 9.22947 17.3235C8.28546 16.8321 7.48915 16.0984 6.9222 15.1977C6.35526 14.2971 6.03808 13.2618 6.00319 12.1981C5.96831 11.1344 6.21698 10.0806 6.72369 9.14471C7.23041 8.20883 7.97694 7.42456 8.88672 6.87234C9.7965 6.32012 10.8368 6.01983 11.9009 6.00226C12.965 5.98469 14.0147 6.25047 14.9422 6.77235C15.8697 7.29422 16.6417 8.05341 17.179 8.97206C17.7164 9.89071 17.9997 10.9357 18 12C18 12.2984 17.8814 12.5845 17.6705 12.7955C17.4595 13.0065 17.1733 13.125 16.875 13.125C16.5766 13.125 16.2905 13.0065 16.0795 12.7955C15.8685 12.5845 15.75 12.2984 15.75 12C15.75 11.0054 15.3549 10.0516 14.6516 9.34835C13.9484 8.64509 12.9945 8.25 12 8.25ZM13.113 11.838C13.0947 11.6893 13.0468 11.5458 12.9723 11.4158C12.8977 11.2858 12.798 11.1721 12.6789 11.0812C12.5598 10.9903 12.4237 10.9241 12.2787 10.8865C12.1337 10.8489 11.9826 10.8407 11.8344 10.8623C11.6861 10.8838 11.5437 10.9348 11.4154 11.0122C11.2871 11.0896 11.1755 11.1918 11.0873 11.3129C10.999 11.4339 10.9359 11.5714 10.9015 11.7172C10.8671 11.863 10.8621 12.0143 10.887 12.162C11.265 14.751 13.1265 16.6635 15.657 16.872C15.9543 16.8965 16.2493 16.8018 16.4768 16.6088C16.7044 16.4159 16.846 16.1404 16.8705 15.843C16.8949 15.5456 16.8003 15.2507 16.6073 15.0231C16.4143 14.7956 16.1388 14.654 15.8415 14.6295C14.4645 14.5155 13.356 13.503 13.113 11.838Z" fill="#00327D"/>
</svg>
