<svg width="21" height="21" viewBox="0 0 21 21" fill="none" xmlns="http://www.w3.org/2000/svg">
<path fill-rule="evenodd" clip-rule="evenodd" d="M8.57121 0.810002C8.65476 1.09644 8.62109 1.40433 8.47763 1.66594C8.33416 1.92755 8.09265 2.12146 7.80621 2.205C6.47816 2.59514 5.26935 3.31257 4.29073 4.29146C3.3121 5.27035 2.59499 6.47934 2.20521 7.8075C2.12147 8.09394 1.92737 8.33537 1.66562 8.4787C1.40387 8.62202 1.0959 8.65549 0.809462 8.57175C0.523029 8.48801 0.281593 8.29391 0.138268 8.03216C-0.00505666 7.7704 -0.0385298 7.46244 0.0452124 7.176C0.541105 5.48506 1.45401 3.94586 2.70004 2.69983C3.94607 1.4538 5.48527 0.540895 7.17621 0.0450021C7.31804 0.00363575 7.46663 -0.00939059 7.61349 0.00666693C7.76035 0.0227245 7.90261 0.0675513 8.03215 0.138588C8.16169 0.209625 8.27596 0.305481 8.36846 0.420682C8.46095 0.535883 8.52985 0.668174 8.57121 0.810002ZM11.6792 0.810002C11.7628 0.523568 11.9567 0.282054 12.2183 0.138588C12.4799 -0.00487716 12.7878 -0.0385411 13.0742 0.0450021C14.581 0.486374 15.9697 1.2599 17.1381 2.3087C18.3065 3.35749 19.225 4.65487 19.8259 6.10541C20.4269 7.55595 20.695 9.12275 20.6106 10.6906C20.5262 12.2584 20.0914 13.7874 19.3382 15.165C19.2701 15.2996 19.1757 15.4191 19.0605 15.5164C18.9453 15.6137 18.8117 15.6869 18.6676 15.7316C18.5236 15.7763 18.372 15.7915 18.222 15.7764C18.0719 15.7614 17.9264 15.7163 17.7941 15.6438C17.6618 15.5714 17.5455 15.4731 17.4519 15.3548C17.3584 15.2365 17.2896 15.1006 17.2496 14.9552C17.2097 14.8098 17.1993 14.6578 17.2193 14.5083C17.2392 14.3588 17.289 14.2149 17.3657 14.085C17.9573 13.0025 18.2988 11.8013 18.365 10.5695C18.4313 9.33767 18.2206 8.10669 17.7485 6.96704C17.2763 5.82738 16.5548 4.80804 15.6369 3.98394C14.7189 3.15985 13.628 2.55197 12.4442 2.205C12.1578 2.12146 11.9163 1.92755 11.7728 1.66594C11.6293 1.40433 11.5957 1.09644 11.6792 0.810002ZM0.810212 11.679C1.09665 11.5955 1.40454 11.6291 1.66615 11.7726C1.92776 11.9161 2.12167 12.1576 2.20521 12.444C2.55236 13.6276 3.16036 14.7184 3.98452 15.6362C4.80869 16.5539 5.82806 17.2753 6.96769 17.7473C8.10732 18.2193 9.33824 18.4298 10.57 18.3635C11.8017 18.2972 13.0029 17.9556 14.0852 17.364C14.347 17.2208 14.6549 17.1874 14.9413 17.2712C15.2277 17.3551 15.469 17.5492 15.6122 17.811C15.7554 18.0728 15.7888 18.3807 15.705 18.6671C15.6211 18.9534 15.427 19.1948 15.1652 19.338C13.7876 20.0912 12.2586 20.526 10.6908 20.6104C9.12296 20.6948 7.55616 20.4266 6.10562 19.8257C4.65508 19.2248 3.3577 18.3063 2.30891 17.1379C1.26012 15.9695 0.486585 14.5808 0.0452124 13.074C-0.0383308 12.7876 -0.00466694 12.4797 0.138798 12.2181C0.282264 11.9565 0.523779 11.7625 0.810212 11.679ZM10.1252 6.375C9.2851 6.37451 8.46915 6.65614 7.8082 7.17473C7.14725 7.69332 6.67958 8.41883 6.48018 9.23494C6.28078 10.051 6.36119 10.9105 6.70854 11.6754C7.05588 12.4404 7.65003 13.0665 8.39571 13.4535C8.52671 13.5219 8.64295 13.6153 8.73782 13.7286C8.83268 13.8419 8.90431 13.9728 8.9486 14.1137C8.99289 14.2547 9.00899 14.403 8.99597 14.5502C8.98295 14.6973 8.94107 14.8405 8.87271 14.9715C8.80436 15.1025 8.71088 15.2187 8.5976 15.3136C8.48432 15.4085 8.35346 15.4801 8.2125 15.5244C8.07154 15.5687 7.92324 15.5848 7.77606 15.5718C7.62888 15.5587 7.48571 15.5169 7.35471 15.4485C6.41071 14.9571 5.6144 14.2234 5.04745 13.3227C4.4805 12.4221 4.16332 11.3868 4.12844 10.3231C4.09355 9.25942 4.34222 8.2056 4.84894 7.26971C5.35565 6.33383 6.10218 5.54956 7.01196 4.99734C7.92174 4.44512 8.96203 4.14483 10.0261 4.12726C11.0903 4.10969 12.1399 4.37547 13.0674 4.89735C13.9949 5.41922 14.767 6.17841 15.3043 7.09706C15.8416 8.01571 16.125 9.06074 16.1252 10.125C16.1252 10.4234 16.0067 10.7095 15.7957 10.9205C15.5847 11.1315 15.2986 11.25 15.0002 11.25C14.7018 11.25 14.4157 11.1315 14.2047 10.9205C13.9937 10.7095 13.8752 10.4234 13.8752 10.125C13.8752 9.13044 13.4801 8.17661 12.7769 7.47335C12.0736 6.77009 11.1198 6.375 10.1252 6.375ZM11.2382 9.963C11.2199 9.81431 11.1721 9.67077 11.0975 9.54081C11.023 9.41085 10.9232 9.29708 10.8041 9.20619C10.685 9.1153 10.549 9.04912 10.404 9.01152C10.2589 8.97392 10.1079 8.96567 9.95961 8.98725C9.81135 9.00883 9.6689 9.05981 9.54061 9.13718C9.41232 9.21456 9.30078 9.31679 9.21253 9.43786C9.12428 9.55893 9.0611 9.6964 9.0267 9.84222C8.99231 9.98804 8.98738 10.1393 9.01221 10.287C9.39021 12.876 11.2517 14.7885 13.7822 14.997C14.0796 15.0215 14.3745 14.9268 14.6021 14.7338C14.8297 14.5409 14.9712 14.2654 14.9957 13.968C15.0202 13.6706 14.9255 13.3757 14.7325 13.1481C14.5396 12.9206 14.2641 12.779 13.9667 12.7545C12.5897 12.6405 11.4812 11.628 11.2382 9.963Z" fill="#888888"/>
</svg>
