<svg width="31" height="31" viewBox="0 0 31 31" fill="none" xmlns="http://www.w3.org/2000/svg">
<path d="M7.81728 0C7.20195 0 6.70052 0.501422 6.70052 1.11675V4.46702C6.70052 5.08235 7.20195 5.58377 7.81728 5.58377C8.43261 5.58377 8.93403 5.08235 8.93403 4.46702V1.11675C8.93403 0.501422 8.43261 0 7.81728 0ZM21.2183 0C20.603 0 20.1016 0.501422 20.1016 1.11675V4.46702C20.1016 5.08235 20.603 5.58377 21.2183 5.58377C21.8337 5.58377 22.3351 5.08235 22.3351 4.46702V1.11675C22.3351 0.501422 21.8337 0 21.2183 0ZM3.35026 2.23351C1.50092 2.23351 0 3.73442 0 5.58377V25.6853C0 27.5347 1.50092 29.0356 3.35026 29.0356H25.6853C27.5347 29.0356 29.0356 27.5347 29.0356 25.6853V5.58377C29.0356 3.73442 27.5347 2.23351 25.6853 2.23351H23.4518V4.46702C23.4518 5.05938 23.2165 5.62748 22.7977 6.04634C22.3788 6.46521 21.8107 6.70052 21.2183 6.70052C20.626 6.70052 20.0579 6.46521 19.639 6.04634C19.2201 5.62748 18.9848 5.05938 18.9848 4.46702V2.23351H10.0508V4.46702C10.0508 5.05938 9.81547 5.62748 9.3966 6.04634C8.97774 6.46521 8.40964 6.70052 7.81728 6.70052C7.22491 6.70052 6.65681 6.46521 6.23795 6.04634C5.81908 5.62748 5.58377 5.05938 5.58377 4.46702V2.23351H3.35026ZM2.23351 10.0508H26.8021V25.6853C26.8021 26.3007 26.3007 26.8021 25.6853 26.8021H3.35026C2.73493 26.8021 2.23351 26.3007 2.23351 25.6853V10.0508ZM18.8798 12.4585C18.7947 12.4741 18.7137 12.5069 18.6417 12.555C18.5697 12.603 18.5082 12.6651 18.4611 12.7377L12.9823 20.8342L10.4349 18.3215C10.3732 18.2593 10.2998 18.21 10.2189 18.1764C10.138 18.1427 10.0513 18.1254 9.96368 18.1254C9.87608 18.1254 9.78935 18.1427 9.70847 18.1764C9.62759 18.21 9.55416 18.2593 9.49241 18.3215L8.51525 19.264C8.38789 19.3948 8.31662 19.5701 8.31662 19.7526C8.31662 19.9351 8.38789 20.1104 8.51525 20.2412L12.3893 24.1152C12.607 24.3307 12.9532 24.4982 13.2615 24.4982C13.5697 24.4982 13.9002 24.3017 14.099 24.0102L20.6946 14.2732C20.7964 14.1251 20.8353 13.9426 20.8026 13.7659C20.77 13.5891 20.6684 13.4326 20.5204 13.3307L19.4036 12.5635C19.2491 12.4621 19.0614 12.4245 18.8798 12.4585ZM1007.31 1640.51V1642.74H1036.35V1640.51H1007.31ZM1011.78 1646.1V1648.33H1031.88V1646.1H1011.78ZM1007.31 1651.68V1653.91H1036.35V1651.68H1007.31ZM1011.78 1657.26V1659.5H1031.88V1657.26H1011.78ZM1007.31 1662.85V1665.08H1036.35V1662.85H1007.31Z" fill="#00327D"/>
</svg>
