<svg width="24" height="24" viewBox="0 0 24 24" fill="none" xmlns="http://www.w3.org/2000/svg">
<path d="M13.25 11.75C13.25 12.0815 13.1183 12.3995 12.8839 12.6339C12.6495 12.8683 12.3315 13 12 13C11.6685 13 11.3505 12.8683 11.1161 12.6339C10.8817 12.3995 10.75 12.0815 10.75 11.75C10.75 11.4185 10.8817 11.1005 11.1161 10.8661C11.3505 10.6317 11.6685 10.5 12 10.5C12.3315 10.5 12.6495 10.6317 12.8839 10.8661C13.1183 11.1005 13.25 11.4185 13.25 11.75ZM21 8.5V17.75C21 18.612 20.6576 19.4386 20.0481 20.0481C19.4386 20.6576 18.612 21 17.75 21H13.75V19.427C14.1317 19.5409 14.5408 19.5212 14.9097 19.3712C15.2787 19.2212 15.5854 18.9498 15.7793 18.6018C15.9731 18.2539 16.0425 17.8502 15.9759 17.4575C15.9093 17.0648 15.7107 16.7066 15.413 16.442L13.163 14.442C12.8426 14.1571 12.4288 13.9996 12 13.9996C11.5712 13.9996 11.1574 14.1571 10.837 14.442L8.587 16.442C8.28928 16.7066 8.09071 17.0648 8.02412 17.4575C7.95752 17.8502 8.02688 18.2539 8.22072 18.6018C8.41457 18.9498 8.72131 19.2212 9.09027 19.3712C9.45923 19.5212 9.86834 19.5409 10.25 19.427V21H6.25C5.38805 21 4.5614 20.6576 3.9519 20.0481C3.34241 19.4386 3 18.612 3 17.75V8.5H21ZM12 13.9996C12.2955 13.9996 12.5881 13.9418 12.861 13.8287C13.134 13.7157 13.3821 13.5499 13.591 13.341C13.7999 13.1321 13.9657 12.884 14.0787 12.611C14.1918 12.3381 14.25 12.0455 14.25 11.75C14.25 11.4545 14.1918 11.1619 14.0787 10.889C13.9657 10.616 13.7999 10.3679 13.591 10.159C13.3821 9.95008 13.134 9.78434 12.861 9.67127C12.5881 9.5582 12.2955 9.5 12 9.5C11.4033 9.5 10.831 9.73705 10.409 10.159C9.98705 10.581 9.75 11.1533 9.75 11.75C9.75 12.3467 9.98705 12.919 10.409 13.341C10.831 13.7629 11.4033 13.9996 12 13.9996ZM17.75 3C18.612 3 19.4386 3.34241 20.0481 3.9519C20.6576 4.5614 21 5.38805 21 6.25V7H3V6.25C3 5.38805 3.34241 4.5614 3.9519 3.9519C4.5614 3.34241 5.38805 3 6.25 3H17.75ZM14.81 18.248C14.678 18.3965 14.4924 18.4866 14.294 18.4984C14.0957 18.5102 13.9007 18.4428 13.752 18.311L12.75 17.421V21.25C12.75 21.4489 12.671 21.6397 12.5303 21.7803C12.3897 21.921 12.1989 22 12 22C11.8011 22 11.6103 21.921 11.4697 21.7803C11.329 21.6397 11.25 21.4489 11.25 21.25V17.42L10.248 18.31C10.0982 18.4329 9.90669 18.493 9.71356 18.4778C9.52042 18.4626 9.34066 18.3733 9.21192 18.2285C9.08318 18.0837 9.01546 17.8948 9.02293 17.7012C9.0304 17.5076 9.11249 17.3244 9.252 17.19L11.502 15.19C11.6393 15.0681 11.8164 15.0008 12 15.0008C12.1836 15.0008 12.3607 15.0681 12.498 15.19L14.748 17.19C14.8965 17.322 14.9866 17.5076 14.9984 17.706C15.0102 17.9043 14.9418 18.0993 14.81 18.248Z" fill="#888888"/>
</svg>
