<svg width="28" height="28" viewBox="0 0 28 28" fill="none" xmlns="http://www.w3.org/2000/svg">
<path fill-rule="evenodd" clip-rule="evenodd" d="M2.00001 14C2.00001 12.4241 2.3104 10.8637 2.91345 9.40781C3.51651 7.9519 4.40042 6.62903 5.51472 5.51472C6.62903 4.40042 7.9519 3.51651 9.40781 2.91345C10.8637 2.3104 12.4241 2.00001 14 2.00001C15.5759 2.00001 17.1363 2.3104 18.5922 2.91345C20.0481 3.51651 21.371 4.40042 22.4853 5.51472C23.5996 6.62903 24.4835 7.9519 25.0866 9.40781C25.6896 10.8637 26 12.4241 26 14H28C28 11.2311 27.1789 8.52431 25.6406 6.22202C24.1022 3.91973 21.9157 2.12532 19.3576 1.06569C16.7994 0.00606596 13.9845 -0.271181 11.2687 0.269012C8.55301 0.809205 6.05845 2.14258 4.10051 4.10051C2.14258 6.05845 0.809205 8.55301 0.269012 11.2687C-0.271181 13.9845 0.00606596 16.7994 1.06569 19.3576C2.12532 21.9157 3.91973 24.1022 6.22202 25.6406C8.52431 27.1789 11.2311 28 14 28V26C10.8174 26 7.76516 24.7357 5.51472 22.4853C3.26429 20.2348 2.00001 17.1826 2.00001 14ZM13 6.00001V13H6.00001V15H15V6.00001H13ZM21 14C19.1435 14 17.363 14.7375 16.0503 16.0503C14.7375 17.363 14 19.1435 14 21C14 22.8565 14.7375 24.637 16.0503 25.9498C17.363 27.2625 19.1435 28 21 28C22.8565 28 24.637 27.2625 25.9498 25.9498C27.2625 24.637 28 22.8565 28 21C28 19.1435 27.2625 17.363 25.9498 16.0503C24.637 14.7375 22.8565 14 21 14ZM20 17V21H22V17H20ZM21 22C20.6022 22 20.2207 22.158 19.9393 22.4393C19.658 22.7207 19.5 23.1022 19.5 23.5C19.5 23.8978 19.658 24.2794 19.9393 24.5607C20.2207 24.842 20.6022 25 21 25C21.3978 25 21.7794 24.842 22.0607 24.5607C22.342 24.2794 22.5 23.8978 22.5 23.5C22.5 23.1022 22.342 22.7207 22.0607 22.4393C21.7794 22.158 21.3978 22 21 22Z" fill="#00327D"/>
</svg>
