<svg width="22" height="16" viewBox="0 0 22 16" fill="none" xmlns="http://www.w3.org/2000/svg">
<path d="M1.85686 15.38C1.34592 15.38 0.908897 15.1981 0.545798 14.8342C0.181933 14.4703 0 14.0333 0 13.5231V3.40233H1.14905V13.5231C1.14905 13.6993 1.22259 13.8613 1.36966 14.0092C1.51751 14.157 1.67991 14.231 1.85686 14.231H17.9872V15.38H1.85686ZM5.304 11.9329C4.79306 11.9329 4.35604 11.7509 3.99294 11.3871C3.62907 11.0232 3.44714 10.5862 3.44714 10.076V1.85571C3.44714 1.34553 3.62907 0.908896 3.99294 0.545797C4.3568 0.182698 4.79344 0.000766032 5.30285 0H19.5338C20.0448 0 20.4818 0.181549 20.8449 0.544648C21.208 0.907748 21.3899 1.34477 21.3907 1.85571V10.076C21.3907 10.5862 21.2087 11.0228 20.8449 11.3859C20.4818 11.7505 20.0451 11.9329 19.535 11.9329H5.304ZM6.45305 10.7838C6.45305 10.269 6.27112 9.83087 5.90725 9.4693C5.54492 9.10773 5.10828 8.92695 4.59734 8.92695V10.076C4.59734 10.2675 4.66705 10.4334 4.80647 10.5735C4.94588 10.7137 5.11173 10.7838 5.304 10.7838H6.45305ZM18.3848 10.7838H19.5338C19.7253 10.7838 19.8912 10.7137 20.0313 10.5735C20.1715 10.4334 20.2416 10.2675 20.2416 10.076V8.92695C19.7268 8.92695 19.2887 9.10888 18.9271 9.47275C18.5655 9.83585 18.3848 10.2725 18.3848 10.7827M12.4189 8.2651C13.067 8.2651 13.612 8.0441 14.054 7.6021C14.496 7.1601 14.717 6.61507 14.717 5.967C14.717 5.31894 14.496 4.77353 14.054 4.33076C13.612 3.88799 13.067 3.66699 12.4189 3.66776C11.7708 3.66853 11.2258 3.88953 10.7838 4.33076C10.3418 4.77199 10.1208 5.31703 10.1208 5.96586C10.1208 6.61468 10.3418 7.15971 10.7838 7.60095C11.2258 8.04218 11.7708 8.26433 12.4189 8.2651ZM4.59619 3.00476C5.11096 3.00476 5.54913 2.82321 5.9107 2.46011C6.27227 2.09625 6.45305 1.65922 6.45305 1.14905H5.304C5.1125 1.14905 4.94665 1.21914 4.80647 1.35932C4.66628 1.49951 4.59619 1.66497 4.59619 1.85571V3.00476ZM20.2416 3.00476V1.85571C20.2416 1.6642 20.1715 1.49874 20.0313 1.35932C19.8912 1.21991 19.7253 1.14981 19.5338 1.14905H18.3848C18.3848 1.66305 18.5667 2.10084 18.9306 2.46241C19.2937 2.82398 19.7303 3.00476 20.2405 3.00476" fill="#888888"/>
</svg>
